<svg width="150" height="150" viewBox="0 0 150 150" fill="none" xmlns="http://www.w3.org/2000/svg">
<circle cx="75" cy="75" r="74.5" fill="white" stroke="#0066FF"/>
<path d="M85.2698 72.5089C87.0989 72.5977 88.8275 73.355 90.1292 74.6309L90.384 74.8946C91.7154 76.3346 92.4259 78.2407 92.3606 80.2003L92.3596 80.2178L92.3606 80.2364C92.4304 82.0788 91.814 83.8769 90.6389 85.2872L90.3967 85.5645C89.0694 87.0064 87.2273 87.8663 85.2698 87.961C83.4384 87.8721 81.7091 87.1103 80.4114 85.8272L80.1565 85.5626C78.8301 84.1145 78.1322 82.1997 78.2161 80.2383L78.217 80.2178L78.2161 80.1983C78.1462 78.3648 78.7589 76.5746 79.928 75.171L80.1692 74.8956C81.4895 73.4606 83.3221 72.6037 85.2698 72.5089ZM82.9963 61.1964L82.7463 61.6299L82.7571 61.6358C82.9625 61.748 83.1434 61.9003 83.2883 62.084C83.4333 62.2679 83.5397 62.4793 83.6008 62.7051C83.6467 62.8746 83.6661 63.0499 83.6594 63.2247L83.6438 63.3985C83.6195 63.5723 83.5691 63.7414 83.4944 63.8995L83.4114 64.0538L83.4075 64.0616L70.3196 86.7061C70.1801 86.9425 69.9889 87.1438 69.761 87.295L69.6614 87.3565C69.3894 87.5125 69.0814 87.5954 68.7678 87.5967H68.7483C68.4479 87.6095 68.1505 87.5326 67.8938 87.376L67.8801 87.3682L67.7327 87.2745C67.6375 87.2072 67.5492 87.1306 67.469 87.046L67.3547 86.9131C67.2472 86.7744 67.161 86.6206 67.0989 86.4571L67.0452 86.2911C66.9993 86.1217 66.9791 85.9463 66.9846 85.7715L66.9983 85.5967C67.0212 85.423 67.0696 85.2538 67.1418 85.0948L67.2229 84.9385L80.3127 62.2901L80.3147 62.2872C80.4015 62.1346 80.5099 61.9953 80.637 61.8751L80.7708 61.7618C80.9096 61.6543 81.0632 61.568 81.2268 61.5059L81.3928 61.4522C81.5622 61.4064 81.7376 61.3862 81.9124 61.3917L82.0872 61.4053C82.3194 61.4358 82.5438 61.5116 82.7463 61.629L82.9963 61.1964ZM85.2122 76.0557C84.2693 76.1651 83.4017 76.6164 82.7717 77.3204L82.6487 77.4649C82.0217 78.2387 81.7185 79.2236 81.7991 80.2149C81.7224 81.1448 81.984 82.0692 82.5334 82.8194L82.6487 82.9698C83.2861 83.7563 84.2064 84.2623 85.2122 84.379L85.2698 84.3848L85.3274 84.379C86.2721 84.2697 87.1424 83.82 87.7776 83.1182L87.9016 82.9747C88.5363 82.2011 88.8491 81.2138 88.7776 80.2169C88.8531 79.2815 88.5874 78.352 88.0305 77.6006L87.9133 77.4503C87.2671 76.6626 86.336 76.1612 85.3225 76.0547L85.2678 76.0489L85.2122 76.0557ZM65.3958 61.0372C67.2219 61.1258 68.9468 61.8853 70.2434 63.1622L70.4973 63.4249C71.8229 64.8655 72.525 66.7719 72.4504 68.7276L72.4495 68.7471L72.4504 68.7676C72.5343 70.7291 71.8365 72.6437 70.51 74.0919C69.1884 75.5346 67.3502 76.3958 65.3958 76.4903C63.5612 76.4012 61.8285 75.6399 60.5256 74.3575L60.2698 74.0938C58.9375 72.6464 58.2315 70.7309 58.3059 68.7657L58.3069 68.7471V68.7296C58.2457 66.8925 58.8655 65.1024 60.0403 63.6993L60.2825 63.4239C61.6085 61.9897 63.4447 61.1323 65.3958 61.0372ZM65.345 64.584C64.3948 64.6838 63.5167 65.1305 62.8782 65.835L62.7542 65.9796C62.1165 66.7568 61.8066 67.7512 61.8889 68.752C61.8191 69.7469 62.1315 70.7319 62.7649 71.504C63.4082 72.288 64.3315 72.7907 65.3391 72.9073L65.3967 72.9141L65.4543 72.9073C66.3974 72.798 67.2647 72.3467 67.8948 71.6426L68.0178 71.4991C68.6455 70.7246 68.9487 69.7384 68.8674 68.7462C68.9523 67.8152 68.6959 66.8869 68.1458 66.1348L68.0295 65.9844C67.3891 65.1941 66.4604 64.6902 65.4485 64.584L65.3967 64.5792L65.345 64.584Z" fill="#0066FF" stroke="#0066FF"/>
<path d="M75.3486 47.5137C82.7513 47.2807 89.9445 49.9938 95.3477 55.0566C100.747 60.1157 103.917 67.108 104.166 74.5C103.925 81.6608 100.942 88.4464 95.8477 93.4629L95.3477 93.9434C89.9445 99.0062 82.7513 101.719 75.3486 101.486L75.333 101.485L75.3174 101.486C68.1461 101.712 61.1721 99.1729 55.8311 94.4111L55.3193 93.9434C49.9203 88.8843 46.7486 81.8921 46.5 74.5C46.7409 67.3391 49.7248 60.5536 54.8193 55.5371L55.3193 55.0566C60.7224 49.9939 67.9148 47.2808 75.3174 47.5137L75.333 47.5146L75.3486 47.5137ZM75.333 51.0947C69.0921 50.8741 63.0117 53.0527 58.3369 57.1689L57.8877 57.5742C53.1526 61.9564 50.3471 68.0348 50.084 74.4795L50.083 74.5L50.084 74.5205C50.3388 80.7639 52.9803 86.6631 57.4502 91.0098L57.8877 91.4258C62.6184 95.8039 68.8904 98.1321 75.333 97.9043C81.5743 98.1252 87.6551 95.9475 92.3301 91.8311L92.7783 91.4258C97.5135 87.0436 100.32 80.9653 100.583 74.5205L100.584 74.5L100.583 74.4795C100.328 68.2362 97.6866 62.3369 93.2168 57.9902L92.7783 57.5742C88.0474 53.1961 81.7758 50.8667 75.333 51.0947Z" fill="#0066FF" stroke="#0066FF"/>
</svg>
