<svg width="150" height="150" viewBox="0 0 150 150" fill="none" xmlns="http://www.w3.org/2000/svg">
<circle cx="75" cy="75" r="74.5" fill="white" stroke="#0066FF"/>
<path d="M75.0205 79.8496C72.8543 79.8496 71.5682 79.9647 69.7725 80.1846L67.7549 80.4385C66.2079 80.634 64.839 80.9076 63.7236 81.2539C62.7586 81.5535 61.9446 81.9199 61.3711 82.3662L61.1396 82.5625L61.1387 82.5645C60.6861 82.9915 60.4604 83.4878 60.4932 84.0127C60.5249 84.5176 60.79 84.956 61.123 85.3008C61.7827 85.9835 62.8614 86.4654 63.8115 86.5684V86.5674C65.4938 86.7541 68.8339 86.6865 75.0332 86.6865C80.6141 86.6865 83.8789 86.7405 85.7021 86.6152V86.6406L86.2617 86.5742C87.2032 86.4625 88.2451 86.0067 88.8857 85.3311C89.2106 84.9884 89.4618 84.5573 89.498 84.0586C89.5305 83.6111 89.3859 83.1717 89.0752 82.7656L88.9316 82.5938C88.6868 82.3192 88.3351 82.0868 87.9307 81.8848C87.5188 81.6791 87.021 81.4895 86.458 81.3164C85.4724 81.0134 84.2566 80.7503 82.8906 80.5322L82.2969 80.4414C79.0937 79.9749 77.905 79.8496 75.0205 79.8496ZM55.2002 72.8955C52.7337 72.187 51.6812 71.8379 50.1143 72.0137L49.793 72.0557H49.792C49.4198 72.1123 49.1094 72.2343 48.8848 72.4717C48.7203 72.6455 48.6378 72.845 48.5889 73.0195L48.5488 73.1836C48.4519 73.6366 48.4297 74.0827 48.5508 74.7451L48.6113 75.043C48.7831 75.8193 49.3342 76.3043 49.9707 76.582C50.5968 76.8552 51.346 76.9502 52.0449 76.9502V76.9492C54.2304 76.9532 56.4141 76.8278 58.584 76.5732L58.583 76.5723C59.069 76.5257 59.3648 76.1533 59.4658 75.8096C59.5604 75.4873 59.5266 75.0384 59.1885 74.7422L59.1162 74.6846C58.3354 74.1106 57.0079 73.4141 55.1992 72.8955H55.2002ZM100.262 72.0234C99.0587 71.8584 97.6942 72.0993 95.7383 72.6299L94.792 72.8945C93.2145 73.3475 91.9849 73.9277 91.1816 74.4648L90.8643 74.6914V74.6924C90.4846 74.9837 90.402 75.4355 90.4766 75.7852C90.5457 76.1086 90.8001 76.5209 91.2842 76.5713V76.5723C93.4955 76.8233 95.7201 76.9487 97.9463 76.9482C98.6421 76.9482 99.3924 76.8553 100.02 76.583C100.658 76.3059 101.212 75.8196 101.381 75.0381L101.38 75.0371C101.521 74.3988 101.545 73.741 101.448 73.0947H101.446C101.423 72.9042 101.345 72.6949 101.217 72.5166C101.096 72.3486 100.909 72.1786 100.651 72.0977L100.537 72.0693V72.0684L100.262 72.0234ZM74.9961 58.3955C72.6068 58.3955 69.8741 58.5576 67.3643 58.9004C65.0239 59.2201 62.8338 59.7019 61.2959 60.3789L60.9971 60.5176C59.8715 61.0638 59.0163 61.9731 58.3242 62.9805C57.6337 63.9856 57.0814 65.1239 56.584 66.1543L56.5791 66.166L56.4531 66.4268C56.3699 66.5982 56.3213 66.7837 56.3096 66.9727L56.3105 67.1631C56.3282 67.4168 56.4125 67.6607 56.5537 67.8721C56.6596 68.0306 56.7948 68.1666 56.9512 68.2734L57.1143 68.3701C57.2838 68.4569 57.4678 68.5115 57.6562 68.5303L57.8457 68.5371H57.8467C62.0244 68.427 70.7535 68.0674 74.9961 68.0674C78.178 68.0674 83.8843 68.2652 88.2979 68.4102L92.1387 68.5283H92.1396C92.3933 68.5347 92.6452 68.4779 92.8711 68.3623C93.0971 68.2466 93.2904 68.0754 93.4316 67.8643C93.5376 67.7058 93.6117 67.5284 93.6494 67.3428L93.6748 67.1543C93.688 66.9638 93.6635 66.7736 93.6035 66.5938L93.5322 66.418L93.4092 66.1582L93.4072 66.1543L93.0215 65.3652C92.6232 64.5637 92.1834 63.7343 91.666 62.9805C91.018 62.0362 90.2269 61.1778 89.2031 60.624L88.9951 60.5176C87.4493 59.7648 85.1236 59.2388 82.627 58.8984C80.1172 58.5563 77.3851 58.3955 74.9961 58.3955ZM48.4902 91.583L48.0518 91.5293C47.7677 91.4945 47.501 91.3816 47.2822 91.2061C47.1183 91.0744 46.9861 90.9118 46.8936 90.7295L46.8145 90.541C46.7925 90.476 46.121 88.4643 45.7021 85.0859L45.6221 84.3916C45.4306 82.5888 45.4665 79.7562 45.7148 77.0029C46.1627 72.1154 46.8893 71.2719 47.085 71.0166L47.084 71.0156C47.6424 70.2907 48.5651 69.7947 49.6807 69.2061L49.6816 69.207C49.7787 69.157 49.866 69.0897 49.9404 69.0098L50.0107 68.9258C50.0759 68.837 50.1248 68.7375 50.1553 68.6318L50.1797 68.5244C50.1976 68.4153 50.1959 68.3042 50.1748 68.1963L50.1475 68.0898L50.1074 67.9873C50.077 67.9208 50.039 67.8582 49.9941 67.8008L49.9219 67.7188L49.916 67.7129L49.8096 67.5967C49.7431 67.5157 49.6857 67.4284 49.6387 67.3359L49.5762 67.1943C49.5041 67.0033 49.4753 66.8 49.4902 66.5977C49.5207 66.2767 49.658 65.9731 49.8828 65.7344L49.9844 65.6367C50.2338 65.4171 50.551 65.2826 50.8867 65.2549L51.0312 65.25H52.9873L53.1797 65.2617L53.2979 65.2764L53.4092 65.2363C53.4308 65.2286 53.4535 65.2229 53.4766 65.2197L53.7354 65.1846L53.8535 64.9521L53.8643 64.9336L53.8691 64.9229C54.9987 62.5954 56.4579 59.6211 59.3662 58.0703L59.6514 57.9248C61.9965 56.7882 65.3762 56.1762 68.4316 55.8525C71.4723 55.5305 74.1302 55.5 74.9961 55.5C75.8622 55.5 78.5194 55.53 81.5605 55.8525C84.6164 56.1766 87.9973 56.7895 90.3457 57.9277V57.9287C93.4453 59.4326 94.9629 62.5243 96.1289 64.9268L96.2334 65.1416L96.4658 65.1953C96.4984 65.2029 96.53 65.2137 96.5605 65.2266L96.6836 65.2783L96.8154 65.2617L97.0078 65.25H98.96C99.3 65.247 99.6287 65.3531 99.8965 65.5479L100.008 65.6367C100.257 65.856 100.422 66.1463 100.482 66.4609L100.502 66.5977C100.515 66.7505 100.502 66.9041 100.465 67.0527L100.419 67.2002C100.365 67.3461 100.287 67.4825 100.188 67.6045L100.082 67.7217L100.078 67.7256C100.001 67.8036 99.9373 67.8945 99.8916 67.9941L99.8525 68.0967C99.8074 68.237 99.7954 68.3866 99.8193 68.5322C99.8373 68.6412 99.8747 68.7456 99.9287 68.8408L99.9883 68.9336C100.074 69.0505 100.187 69.1443 100.314 69.2109V69.2119C101.36 69.7601 102.235 70.2318 102.806 70.8906L102.916 71.0254V71.0264C103.097 71.2594 103.749 72.0163 104.198 76.1396L104.285 77.0098C104.505 79.4229 104.557 81.8899 104.438 83.6777L104.377 84.4004C103.972 88.1843 103.213 90.4663 103.186 90.5488C103.12 90.7435 103.012 90.9228 102.869 91.0742L102.716 91.2158C102.496 91.3914 102.229 91.5039 101.944 91.5381L101.504 91.5908V92.0488C101.504 92.3816 101.385 92.7045 101.168 92.9629L101.068 93.0693C100.788 93.3427 100.405 93.499 100.003 93.499H93.002C92.6505 93.499 92.3134 93.3797 92.0469 93.167L91.9365 93.0693C91.6567 92.7964 91.502 92.4291 91.502 92.0488V91.5576L91.0107 91.5488C90.0725 91.5316 89.3976 91.3685 88.6426 91.1797H88.6416C87.4649 90.8708 86.262 90.6649 85.0479 90.5654H85.0469C81.2109 90.2096 77.2382 90.0879 74.9961 90.0879C72.9921 90.0879 69.8252 90.1812 66.498 90.4434L65.0713 90.5654C64.0108 90.6525 62.9589 90.821 61.9258 91.0684L61.4844 91.1787C60.6971 91.3769 60.0003 91.5498 58.9922 91.5498H58.4922V92.0498C58.4922 92.3826 58.3734 92.7055 58.1562 92.9639L58.0576 93.0713C57.7772 93.3446 57.394 93.4999 56.9922 93.5H49.9912C49.6395 93.5 49.3018 93.3809 49.0352 93.168L48.9258 93.0713C48.6458 92.7983 48.4902 92.4302 48.4902 92.0498V91.583Z" fill="#0066FF" stroke="#0066FF"/>
</svg>
